{"title":"Sinners.and.Saints.2010.720p.BRRip.x264.Feel-Free","uid":6459623,"size":2650603944,"categoryP":"video","categoryS":"hd___movies","magnet":"?xt=urn:btih:3272de176de58a87275a1fe5a01a41808c14cc9b&amp;dn=Sinners.and.Saints.2010.720p.BRRip.x264.Feel-Free&amp;tr=udp%3A%2F%2Ftracker.openbittorrent.com%3A80&amp;tr=udp%3A%2F%2Fopen.demonii.com%3A1337&amp;tr=udp%3A%2F%2Ftracker.coppersurfer.tk%3A6969&amp;tr=udp%3A%2F%2Fexodus.desync.com%3A6969","seeders":0,"leechers":1,"uploader":"hiest","files":-1,"time":1307711767,"description":"Full Credits to (Pitic):\n\n ######## ######## ######## ##          ######## ########  ######## ######\n ##       ##       ##       ##          ##       ##     ## ##       ##       \n ##       ##       ##       ##          ##       ##     ## ##       ##       \n ######   ######   ######   ##          ######   ########  ######   ######   \n ##       ##       ##       ##          ##       ##   ##   ##       ##       \n ##       ##       ##       ##          ##       ##    ##  ##       ##       \n ##       ######## ######## ########    ##       ##     ## ######## ######\n\n\nGenre:Action | Crime | Thriller\n Language:English\n IMDb: &lt;a href=&quot;\nhttp://www.imdb.com/title/tt1130969/&quot; rel=&quot;nofollow&quot; target=&quot;_NEW&quot;&gt;\nhttp://www.imdb.com/title/tt1130969/&lt;/a&gt;\n Source:BluRay.x264-SAiMORNY Thanks!\n\n Format : MPEG-4\n Format profile : Base Media\n Codec ID : isom\n File size : 2.46 GiB\n Duration : 1h 44mn\n Overall bit rate : 3 391 Kbps\n\n Video\n ID : 1\n Format : AVC\n Format/Info : Advanced Video Codec\n Format profile : &lt;a class=&quot;__cf_email__&quot; href=&quot;/cdn-cgi/l/email-protection&quot; data-cfemail=&quot;9cd4f5fbf4dcd0a8b2ad&quot;&gt;[email&amp;#160;protected]&lt;/a&gt;&lt;script cf-hash='f9e31' type=&quot;text/javascript&quot;&gt;\n/* &lt;![CDATA[ */!function(){try{var t=&quot;currentScript&quot;in document?document.currentScript:function(){for(var t=document.getElementsByTagName(&quot;script&quot;),e=t.length;e--;)if(t[e].getAttribute(&quot;cf-hash&quot;))return t[e]}();if(t&amp;&amp;t.previousSibling){var e,r,n,i,c=t.previousSibling,a=c.getAttribute(&quot;data-cfemail&quot;);if(a){for(e=&quot;&quot;,r=parseInt(a.substr(0,2),16),n=2;a.length-n;n+=2)i=parseInt(a.substr(n,2),16)^r,e+=String.fromCharCode(i);e=document.createTextNode(e),c.parentNode.replaceChild(e,c)}}}catch(u){}}();/* ]]&gt; */&lt;/script&gt;\n Format settings, CABAC : Yes\n Format settings, ReFrames : 3 frames\n Codec ID : avc1\n Codec ID/Info : Advanced Video Coding\n Duration : 1h 44mn\n Bit rate mode : Variable\n Bit rate : 3 000 Kbps\n Maximum bit rate : 14.8 Mbps\n Width : 1 280 pixels\n Height : 544 pixels\n Display aspect ratio : 2.35:1\n Frame rate mode : Constant\n Frame rate : 23.976 fps\n Color space : YUV\n Chroma subsampling : 4:2:0\n Bit depth : 8 bits\n Scan type : Progressive\n Bits/(Pixel*Frame) : 0.180\n Stream size : 2.14 GiB (87%)\n Writing library : x264\n\n Audio\n ID : 2\n Format : AAC\n Format/Info : Advanced Audio Codec\n Format version : Version 4\n Format profile : LC\n Format settings, SBR : No\n Codec ID : 40\n Duration : 1h 44mn\n Bit rate mode : Variable\n Bit rate : 447 Kbps\n Maximum bit rate : 584 Kbps\n Channel(s) : 6 channels\n Channel positions : Front: L C R, Side: L R, LFE\n Sampling rate : 48.0 KHz\n Stream size : 332 MiB (13%)\n\n Plot:\n n lawless storm ravaged New Orleans, beleaguered Detective Sean Riley is trying to cope with the death of his young son and the abandonment of his wife.\n\n\n\nGreets:\n\n INK,CRYS,IMAGINE,LKRG,FXG,3Li,FLAWL3SS,TA,iLLUSiON,ViSiON,DTRG SAFCuk009,LU,TheFalcon007,MYSTiC,PrisM,Noir,WBZ,LAP,Rx,Kingdom,SAFCuk009+Fabreezy,HDLiTE,TWiZTED,ExtraTorrentRG.ELEKTRI4KA,MAGNAT,CM8\n And to all the other p2p grps past and present\n\n\n\n\n================================== &lt;a href=&quot;\nhttp://thepiratebay.se/user/hiest&quot; rel=&quot;nofollow&quot; target=&quot;_NEW&quot;&gt;\nhttp://thepiratebay.se/user/hiest&lt;/a&gt;\n==================================\n\n\n\n\nScreenshots:\n  &lt;a href=&quot;\nhttp://leetleech.org/images/01296318855033369132.png&quot; rel=&quot;nofollow&quot; target=&quot;_NEW&quot;&gt;\nhttp://leetleech.org/images/01296318855033369132.png&lt;/a&gt;\n &lt;a href=&quot;\nhttp://leetleech.org/images/11388562662850235936.png&quot; rel=&quot;nofollow&quot; target=&quot;_NEW&quot;&gt;\nhttp://leetleech.org/images/11388562662850235936.png&lt;/a&gt;\n &lt;a href=&quot;\nhttp://leetleech.org/images/03550711229955870642.png&quot; rel=&quot;nofollow&quot; target=&quot;_NEW&quot;&gt;\nhttp://leetleech.org/images/03550711229955870642.png&lt;/a&gt;\n &lt;a href=&quot;\nhttp://leetleech.org/images/42527577249146795749.png&quot; rel=&quot;nofollow&quot; target=&quot;_NEW&quot;&gt;\nhttp://leetleech.org/images/42527577249146795749.png&lt;/a&gt;\n &lt;a href=&quot;\nhttp://leetleech.org/images/81905200933650752524.png&quot; rel=&quot;nofollow&quot; target=&quot;_NEW&quot;&gt;\nhttp://leetleech.org/images/81905200933650752524.png&lt;/a&gt;\n &lt;a href=&quot;\nhttp://leetleech.org/images/65345122312638290316.png&quot; rel=&quot;nofollow&quot; target=&quot;_NEW&quot;&gt;\nhttp://leetleech.org/images/65345122312638290316.png&lt;/a&gt;\n\n\nFull Credits to (Pitic):\n\n ######## ######## ######## ##          ######## ########  ######## ######\n ##       ##       ##       ##          ##       ##     ## ##       ##       \n ##       ##       ##       ##          ##       ##     ## ##       ##       \n ######   ######   ######   ##          ######   ########  ######   ######   \n ##       ##       ##       ##          ##       ##   ##   ##       ##       \n ##       ##       ##       ##          ##       ##    ##  ##       ##       \n ##       ######## ######## ########    ##       ##     ## ######## ######","torrent":{"xt":"urn:btih:3272de176de58a87275a1fe5a01a41808c14cc9b","amp;dn":"Sinners.and.Saints.2010.720p.BRRip.x264.Feel-Free","amp;tr":["udp%3A%2F%2Ftracker.openbittorrent.com%3A80","udp%3A%2F%2Fopen.demonii.com%3A1337","udp%3A%2F%2Ftracker.coppersurfer.tk%3A6969","udp%3A%2F%2Fexodus.desync.com%3A6969"],"infoHash":"3272de176de58a87275a1fe5a01a41808c14cc9b","infoHashBuffer":{"type":"Buffer","data":[50,114,222,23,109,229,138,135,39,90,31,229,160,26,65,128,140,20,204,155]},"announce":[],"urlList":[]}}